<svg width="25" height="24" viewBox="0 0 25 24" fill="none" xmlns="http://www.w3.org/2000/svg">
<rect x="4.09375" y="10" width="16" height="10" rx="1" fill="#5C5CD6"/>
<rect x="5.09375" y="11" width="14" height="8" rx="1" fill="#EAEAF9"/>
<rect x="4.09375" y="10" width="16" height="10" rx="1" stroke="#5C5CD6" stroke-width="2"/>
<path d="M5.10156 5C5.10156 2.79086 6.89242 1 9.10156 1H15.0859C17.2951 1 19.0859 2.79086 19.0859 5C19.0859 5 18.1905 5 17.0859 5H7.10156C5.99699 5 5.10156 5 5.10156 5ZM19.0859 5H5.10156H19.0859ZM5.10156 5V3V5ZM19.0859 3V5V3Z" fill="#5C5CD6" mask="url(#path-3-inside-1_1_4883)"/>
<mask id="path-5-inside-2_1_4883" fill="white">
<path d="M4.10938 8C4.10938 6.89543 5.00481 6 6.10938 6H18.0781C19.1827 6 20.0781 6.89543 20.0781 8H4.10938Z"/>
</mask>
<path d="M4.10938 8C4.10938 6.89543 5.00481 6 6.10938 6H18.0781C19.1827 6 20.0781 6.89543 20.0781 8H4.10938Z" fill="#5C5CD6"/>
<path d="M4.10938 8C4.10938 5.79086 5.90024 4 8.10938 4H16.0781C18.2873 4 20.0781 5.79086 20.0781 8C20.0781 8 19.1827 8 18.0781 8H6.10938C5.00481 8 4.10938 8 4.10938 8ZM20.0781 8H4.10938H20.0781ZM4.10938 8V6V8ZM20.0781 6V8V6Z" fill="#5C5CD6" mask="url(#path-5-inside-2_1_4883)"/>
</svg>
