<svg width="10" height="6" viewBox="0 0 10 6" fill="none" xmlns="http://www.w3.org/2000/svg">
<path d="M5 5.66666C5.20713 5.66073 5.39653 5.5832 5.55047 5.41619L9.29873 1.53806C9.429 1.40686 9.5 1.23986 9.5 1.04305C9.5 0.649422 9.1922 0.333328 8.8016 0.333328C8.6122 0.333328 8.42867 0.410861 8.29253 0.548035L5.00593 3.96693L1.70744 0.548035C1.57131 0.416821 1.39374 0.333328 1.19842 0.333328C0.80778 0.333328 0.5 0.649422 0.5 1.04305C0.5 1.23986 0.571027 1.40686 0.70124 1.53806L4.45547 5.41619C4.61527 5.5832 4.79287 5.66666 5 5.66666Z" fill="#62656A"/>
</svg>
