<svg width="21" height="18" viewBox="0 0 21 18" fill="none" xmlns="http://www.w3.org/2000/svg">
<path fill-rule="evenodd" clip-rule="evenodd" d="M6.45312 1.5C4.22248 1.5 2.45312 3.30906 2.45312 5.5C2.45312 6.4282 2.82996 7.4436 3.50182 8.5105C4.17004 9.5716 5.0946 10.6274 6.10439 11.6219C7.51081 13.007 8.98493 14.1879 10.1239 15.1003C10.4265 15.3427 10.7054 15.5661 10.9531 15.7694C11.2008 15.5661 11.4797 15.3427 11.7823 15.1003C12.9213 14.1879 14.3954 13.007 15.8018 11.6219C16.8116 10.6274 17.7362 9.5716 18.4044 8.5105C19.0763 7.4436 19.4531 6.4282 19.4531 5.5C19.4531 3.30898 17.6845 1.5 15.4531 1.5C13.3004 1.5 12.0269 3.20226 11.6793 3.74742C11.342 4.27655 10.5642 4.27653 10.2269 3.74742C9.87932 3.20225 8.60585 1.5 6.45312 1.5ZM0.953125 5.5C0.953125 2.49094 3.38377 0 6.45312 0C8.68456 0 10.178 1.30207 10.9531 2.21581C11.7282 1.30207 13.2217 0 15.4531 0C18.5233 0 20.9531 2.49102 20.9531 5.5C20.9531 6.8218 20.4237 8.1189 19.6737 9.3098C18.92 10.5066 17.9071 11.6539 16.8544 12.6906C15.396 14.1269 13.7611 15.4384 12.6033 16.3672C12.118 16.7565 11.7165 17.0786 11.447 17.3144C11.1642 17.5619 10.742 17.5619 10.4592 17.3144C10.1897 17.0786 9.78823 16.7565 9.30293 16.3672C8.14513 15.4384 6.51025 14.1269 5.05186 12.6906C3.99915 11.6539 2.9862 10.5066 2.23254 9.3098C1.48253 8.1189 0.953125 6.8218 0.953125 5.5Z" fill="#141415"/>
</svg>
