<svg width="17" height="20" viewBox="0 0 17 20" fill="none" xmlns="http://www.w3.org/2000/svg">
<path fill-rule="evenodd" clip-rule="evenodd" d="M5.48438 4.5C5.48438 2.88779 6.72458 1.5 8.48438 1.5C10.2442 1.5 11.4844 2.88779 11.4844 4.5V5.5H5.48438V4.5ZM3.98438 7V9.5H5.48438V7H11.4844V9.5H12.9844V7H14.9844V17.75C14.9844 18.1642 14.6486 18.5 14.2344 18.5H2.73438C2.32017 18.5 1.98438 18.1642 1.98438 17.75V7H3.98438ZM3.98438 5.5V4.5C3.98438 2.11221 5.84421 0 8.48438 0C11.1246 0 12.9844 2.11221 12.9844 4.5V5.5H15.7344H16.4844V6.25V17.75C16.4844 18.9926 15.477 20 14.2344 20H2.73438C1.49173 20 0.484375 18.9926 0.484375 17.75V6.25V5.5H1.23438H3.98438Z" fill="#141415"/>
</svg>
