<svg width="17" height="16" viewBox="0 0 17 16" fill="none" xmlns="http://www.w3.org/2000/svg">
<path fill-rule="evenodd" clip-rule="evenodd" d="M11.7344 6.5C11.7344 9.2614 9.49578 11.5 6.73438 11.5C3.97295 11.5 1.73438 9.2614 1.73438 6.5C1.73438 3.73858 3.97295 1.5 6.73438 1.5C9.49578 1.5 11.7344 3.73858 11.7344 6.5ZM10.5742 11.7451C9.49837 12.5341 8.17077 13 6.73438 13C3.14453 13 0.234375 10.0899 0.234375 6.5C0.234375 2.91015 3.14453 0 6.73438 0C10.3243 0 13.2344 2.91015 13.2344 6.5C13.2344 7.9364 12.7685 9.264 11.9795 10.3398L15.9434 14.3036C16.3314 14.6917 16.3314 15.3209 15.9434 15.709C15.5553 16.097 14.9261 16.097 14.538 15.709L10.5742 11.7451Z" fill="black"/>
</svg>
