<svg width="17" height="19" viewBox="0 0 17 19" fill="none" xmlns="http://www.w3.org/2000/svg">
<path fill-rule="evenodd" clip-rule="evenodd" d="M8.46875 0C6.25961 0 4.46875 1.79086 4.46875 4V5C4.46875 7.2091 6.25961 9 8.46875 9C10.6778 9 12.4687 7.2091 12.4687 5V4C12.4687 1.79086 10.6778 0 8.46875 0ZM5.96875 4C5.96875 2.61929 7.08805 1.5 8.46875 1.5C9.84945 1.5 10.9687 2.61929 10.9687 4V5C10.9687 6.38071 9.84945 7.5 8.46875 7.5C7.08805 7.5 5.96875 6.38071 5.96875 5V4ZM1.97107 16.3686C2.44196 13.2577 5.48678 11.5 8.47095 11.5C11.4545 11.5 14.4997 13.2577 14.9706 16.3686C14.9733 16.3866 14.9712 16.3972 14.9687 16.4048C14.9657 16.4137 14.959 16.4269 14.9446 16.442C14.914 16.4741 14.8581 16.5039 14.7858 16.5039H2.15593C2.08362 16.5039 2.02773 16.4741 1.99713 16.442C1.98269 16.4269 1.97601 16.4137 1.97302 16.4048C1.97049 16.3972 1.96836 16.3865 1.97107 16.3686ZM8.47095 10C5.04196 10 1.10912 12.0404 0.487967 16.1441C0.324987 17.2208 1.22602 18.0039 2.15593 18.0039H14.7858C15.7157 18.0039 16.6167 17.2208 16.4537 16.1441C15.8325 12.0404 11.8993 10 8.47095 10Z" fill="black"/>
</svg>
